<svg width="47" height="44" viewBox="0 0 47 44" fill="none" xmlns="http://www.w3.org/2000/svg">
<g filter="url(#filter0_d_6_72)">
<path d="M25.432 0.671999L15.576 30.24C15.048 31.5893 14.1093 32.264 12.76 32.264C11.352 32.264 10.384 31.5893 9.856 30.24L0.132 0.671999H6.468L12.76 21.088L19.052 0.671999H25.432Z" fill="#25523F"/>
<path d="M25.432 0.671999L27.3294 1.30445L28.2069 -1.328H25.432V0.671999ZM15.576 30.24L17.4385 30.9688L17.4572 30.9211L17.4734 30.8725L15.576 30.24ZM9.856 30.24L7.9561 30.8648L7.97337 30.9173L7.99351 30.9688L9.856 30.24ZM0.132 0.671999V-1.328H-2.63112L-1.7679 1.29682L0.132 0.671999ZM6.468 0.671999L8.37929 0.0829594L7.94445 -1.328H6.468V0.671999ZM12.76 21.088L10.8487 21.677L12.76 27.8787L14.6713 21.677L12.76 21.088ZM19.052 0.671999V-1.328H17.5756L17.1407 0.0829594L19.052 0.671999ZM23.5346 0.0395439L13.6786 29.6075L17.4734 30.8725L27.3294 1.30445L23.5346 0.0395439ZM13.7135 29.5112C13.5545 29.9175 13.3941 30.0726 13.3087 30.134C13.2339 30.1878 13.0881 30.264 12.76 30.264V34.264C13.7812 34.264 14.7795 34.0029 15.6433 33.382C16.4966 32.7687 17.0695 31.9118 17.4385 30.9688L13.7135 29.5112ZM12.76 30.264C12.3842 30.264 12.2094 30.1784 12.1216 30.1172C12.0295 30.053 11.8715 29.9021 11.7185 29.5112L7.99351 30.9688C8.36855 31.9272 8.95854 32.7883 9.83442 33.3988C10.7146 34.0122 11.7278 34.264 12.76 34.264V30.264ZM11.7559 29.6152L2.0319 0.0471825L-1.7679 1.29682L7.9561 30.8648L11.7559 29.6152ZM0.132 2.672H6.468V-1.328H0.132V2.672ZM4.55671 1.26104L10.8487 21.677L14.6713 20.499L8.37929 0.0829594L4.55671 1.26104ZM14.6713 21.677L20.9633 1.26104L17.1407 0.0829594L10.8487 20.499L14.6713 21.677ZM19.052 2.672H25.432V-1.328H19.052V2.672Z" fill="white"/>
</g>
<g filter="url(#filter1_d_6_72)">
<path d="M44.276 18.756C44.276 25.2973 42.5893 29.4773 39.216 31.296C37.8373 32.0293 36.1507 32.396 34.156 32.396L29.932 29.668V39.48H24.212V7.052H35.476C38.8787 7.052 41.196 8.02 42.428 9.956C43.66 11.8627 44.276 14.796 44.276 18.756ZM38.556 19.636C38.556 14.6787 36.972 12.2 33.804 12.2H29.932V23.86L33.804 26.368C35.5053 26.368 36.7227 25.84 37.456 24.784C38.1893 23.6987 38.556 21.9827 38.556 19.636Z" fill="#101210"/>
<path d="M39.216 31.296L40.1552 33.0618L40.1651 33.0565L39.216 31.296ZM34.156 32.396L33.071 34.0761L33.5663 34.396H34.156V32.396ZM29.932 29.668L31.0171 27.9879L27.932 25.9955V29.668H29.932ZM29.932 39.48V41.48H31.932V39.48H29.932ZM24.212 39.48H22.212V41.48H24.212V39.48ZM24.212 7.052V5.052H22.212V7.052H24.212ZM42.428 9.956L40.7406 11.0298L40.7482 11.0414L42.428 9.956ZM29.932 12.2V10.2H27.932V12.2H29.932ZM29.932 23.86H27.932V24.9474L28.8447 25.5386L29.932 23.86ZM33.804 26.368L32.7167 28.0466L33.2129 28.368H33.804V26.368ZM37.456 24.784L39.0987 25.9248L39.106 25.9143L39.1132 25.9037L37.456 24.784ZM42.276 18.756C42.276 25.1024 40.6265 28.2634 38.2669 29.5355L40.1651 33.0565C44.5522 30.6913 46.276 25.4923 46.276 18.756H42.276ZM38.2768 29.5303C37.2565 30.073 35.9117 30.396 34.156 30.396V34.396C36.3897 34.396 38.4182 33.9857 40.1552 33.0617L38.2768 29.5303ZM35.2411 30.7159L31.0171 27.9879L28.8469 31.3481L33.071 34.0761L35.2411 30.7159ZM27.932 29.668V39.48H31.932V29.668H27.932ZM29.932 37.48H24.212V41.48H29.932V37.48ZM26.212 39.48V7.052H22.212V39.48H26.212ZM24.212 9.052H35.476V5.052H24.212V9.052ZM35.476 9.052C38.5491 9.052 40.0323 9.91665 40.7407 11.0297L44.1153 8.88225C42.3597 6.12335 39.2083 5.052 35.476 5.052V9.052ZM40.7482 11.0414C41.6671 12.4636 42.276 14.9293 42.276 18.756H46.276C46.276 14.6627 45.6529 11.2617 44.1078 8.87057L40.7482 11.0414ZM40.556 19.636C40.556 17.0086 40.1479 14.6949 39.0533 12.982C37.8612 11.1166 36.0076 10.2 33.804 10.2V14.2C34.7684 14.2 35.2908 14.5227 35.6827 15.136C36.1721 15.9018 36.556 17.3061 36.556 19.636H40.556ZM33.804 10.2H29.932V14.2H33.804V10.2ZM27.932 12.2V23.86H31.932V12.2H27.932ZM28.8447 25.5386L32.7167 28.0466L34.8913 24.6894L31.0193 22.1814L28.8447 25.5386ZM33.804 28.368C35.927 28.368 37.8757 27.686 39.0987 25.9248L35.8133 23.6432C35.5696 23.994 35.0837 24.368 33.804 24.368V28.368ZM39.1132 25.9037C40.1859 24.3161 40.556 22.1064 40.556 19.636H36.556C36.556 21.8589 36.1928 23.0812 35.7988 23.6643L39.1132 25.9037Z" fill="white"/>
</g>
<defs>
<filter id="filter0_d_6_72" x="0.132" y="0.671997" width="27.3" height="35.592" filterUnits="userSpaceOnUse" color-interpolation-filters="sRGB">
<feFlood flood-opacity="0" result="BackgroundImageFix"/>
<feColorMatrix in="SourceAlpha" type="matrix" values="0 0 0 0 0 0 0 0 0 0 0 0 0 0 0 0 0 0 127 0" result="hardAlpha"/>
<feOffset dx="2" dy="4"/>
<feComposite in2="hardAlpha" operator="out"/>
<feColorMatrix type="matrix" values="0 0 0 0 0.713726 0 0 0 0 0.803922 0 0 0 0 0.788235 0 0 0 1 0"/>
<feBlend mode="normal" in2="BackgroundImageFix" result="effect1_dropShadow_6_72"/>
<feBlend mode="normal" in="SourceGraphic" in2="effect1_dropShadow_6_72" result="shape"/>
</filter>
<filter id="filter1_d_6_72" x="24.212" y="7.052" width="22.064" height="36.428" filterUnits="userSpaceOnUse" color-interpolation-filters="sRGB">
<feFlood flood-opacity="0" result="BackgroundImageFix"/>
<feColorMatrix in="SourceAlpha" type="matrix" values="0 0 0 0 0 0 0 0 0 0 0 0 0 0 0 0 0 0 127 0" result="hardAlpha"/>
<feOffset dx="2" dy="4"/>
<feComposite in2="hardAlpha" operator="out"/>
<feColorMatrix type="matrix" values="0 0 0 0 0.713726 0 0 0 0 0.803922 0 0 0 0 0.788235 0 0 0 1 0"/>
<feBlend mode="normal" in2="BackgroundImageFix" result="effect1_dropShadow_6_72"/>
<feBlend mode="normal" in="SourceGraphic" in2="effect1_dropShadow_6_72" result="shape"/>
</filter>
</defs>
</svg>
