<svg width="189" height="107" viewBox="0 0 189 107" fill="none" xmlns="http://www.w3.org/2000/svg">
<ellipse cx="170.248" cy="36.1648" rx="10.5" ry="14.5" transform="rotate(27.1168 170.248 36.1648)" fill="#6B8E87"/>
<ellipse cx="165.993" cy="36.7947" rx="11" ry="15" transform="rotate(27.1168 165.993 36.7947)" fill="#9FB9B4"/>
<ellipse cx="158.2" cy="33.3654" rx="19.5" ry="27.5" transform="rotate(27.1168 158.2 33.3654)" fill="#82A59F"/>
<ellipse cx="156.409" cy="33.5717" rx="17" ry="22.5" transform="rotate(27.1168 156.409 33.5717)" fill="#25523F"/>
<ellipse cx="147.465" cy="33.4856" rx="19" ry="27.5" transform="rotate(27.1168 147.465 33.4856)" fill="#B6CDC9"/>
<ellipse cx="146.13" cy="32.8019" rx="12.5" ry="20.5" transform="rotate(27.1168 146.13 32.8019)" fill="#99B4B0"/>
<ellipse cx="145.706" cy="30.338" rx="10" ry="12.5" transform="rotate(27.1168 145.706 30.338)" fill="#869D99"/>
<ellipse cx="156.841" cy="11.8851" rx="2.5" ry="2" transform="rotate(27.1168 156.841 11.8851)" fill="#89A7A1"/>
<ellipse cx="157.514" cy="11.6679" rx="2" ry="2.5" transform="rotate(27.1168 157.514 11.6679)" fill="#89A7A1"/>
<ellipse cx="155.951" cy="11.4293" rx="1.5" ry="2" transform="rotate(27.1168 155.951 11.4293)" fill="#9FB9B4"/>
<circle cx="135.191" cy="54.1638" r="2.5" transform="rotate(27.1168 135.191 54.1638)" fill="#89A7A1"/>
<circle cx="135.864" cy="53.9467" r="2" transform="rotate(27.1168 135.864 53.9467)" fill="#89A7A1"/>
<ellipse cx="134.073" cy="54.1531" rx="1.5" ry="2" transform="rotate(27.1168 134.073 54.1531)" fill="#9FB9B4"/>
<ellipse cx="161.033" cy="40.9957" rx="2.5" ry="2" transform="rotate(27.1168 161.033 40.9957)" fill="#89A7A1"/>
<circle cx="161.478" cy="41.2236" r="2" transform="rotate(27.1168 161.478 41.2236)" fill="#89A7A1"/>
<ellipse cx="159.915" cy="40.9849" rx="1.5" ry="2.5" transform="rotate(27.1168 159.915 40.9849)" fill="#9FB9B4"/>
<ellipse cx="164.31" cy="25.8212" rx="2.5" ry="2" transform="rotate(27.1168 164.31 25.8212)" fill="#89A7A1"/>
<circle cx="165.645" cy="26.5049" r="2" transform="rotate(27.1168 165.645 26.5049)" fill="#89A7A1"/>
<ellipse cx="163.637" cy="26.0384" rx="2" ry="2.5" transform="rotate(27.1168 163.637 26.0384)" fill="#9FB9B4"/>
<circle cx="140.267" cy="14.6325" r="2" transform="rotate(27.1168 140.267 14.6325)" fill="#89A7A1"/>
<ellipse cx="141.385" cy="14.6432" rx="2" ry="2.5" transform="rotate(27.1168 141.385 14.6432)" fill="#89A7A1"/>
<circle cx="139.377" cy="14.1767" r="2" transform="rotate(27.1168 139.377 14.1767)" fill="#9FB9B4"/>
<ellipse cx="151.092" cy="51.6335" rx="2.5" ry="2" transform="rotate(27.1168 151.092 51.6335)" fill="#89A7A1"/>
<circle cx="151.537" cy="51.8614" r="2" transform="rotate(27.1168 151.537 51.8614)" fill="#89A7A1"/>
<ellipse cx="149.529" cy="51.3949" rx="2" ry="2.5" transform="rotate(27.1168 149.529 51.3949)" fill="#9FB9B4"/>
<ellipse cx="127.494" cy="40.6727" rx="2.5" ry="2" transform="rotate(27.1168 127.494 40.6727)" fill="#89A7A1"/>
<ellipse cx="128.167" cy="40.4555" rx="2" ry="2.5" transform="rotate(27.1168 128.167 40.4555)" fill="#89A7A1"/>
<ellipse cx="126.604" cy="40.2169" rx="1.5" ry="2" transform="rotate(27.1168 126.604 40.2169)" fill="#9FB9B4"/>
<ellipse cx="141.907" cy="30.0779" rx="9.5" ry="14" transform="rotate(27.1168 141.907 30.0779)" fill="#869D99"/>
<ellipse cx="138.336" cy="29.3726" rx="11" ry="14" transform="rotate(27.1168 138.336 29.3726)" fill="#C3D5D2"/>
<g filter="url(#filter0_d_8_140)">
<path d="M25.432 26.4394L15.576 56.0074C15.048 57.3567 14.1093 58.0314 12.76 58.0314C11.352 58.0314 10.384 57.3567 9.856 56.0074L0.132 26.4394H6.468L12.76 46.8554L19.052 26.4394H25.432ZM47.6104 46.5474H32.9584C32.9584 48.8354 33.3104 50.5074 34.0144 51.5634C34.7477 52.6194 36.1997 53.1474 38.3704 53.1474C39.7784 53.1474 40.8197 52.7074 41.4944 51.8274C42.1691 50.918 42.5064 50.0527 42.5064 49.2314H47.6544C47.6544 52.37 46.8037 54.6727 45.1024 56.1394C43.4304 57.606 41.2011 58.3394 38.4144 58.3394C35.6571 58.3394 33.5157 57.9434 31.9904 57.1514C28.8517 55.538 27.2824 51.2554 27.2824 44.3034C27.2824 40.1674 28.1771 37.146 29.9664 35.2394C31.7557 33.3034 34.4837 32.3354 38.1504 32.3354C44.5157 32.3354 47.6984 35.87 47.6984 42.9394C47.6984 43.702 47.6691 44.9047 47.6104 46.5474ZM33.0904 42.6314H42.5064C42.5064 40.6954 42.1397 39.2874 41.4064 38.4074C40.6731 37.5274 39.5437 37.0874 38.0184 37.0874C36.5224 37.0874 35.3197 37.542 34.4104 38.4514C33.5304 39.3314 33.0904 40.7247 33.0904 42.6314ZM72.3759 57.7674H66.6559V41.7074C66.6559 40.27 66.3625 39.2874 65.7759 38.7594C65.1892 38.2314 64.3679 37.9674 63.3119 37.9674L58.1639 40.1234V57.7674H52.4439V32.6434H56.7119L58.0319 35.6354L65.0719 32.3794C67.0372 32.3794 68.7385 33.1127 70.1759 34.5794C71.6425 36.0167 72.3759 38.1287 72.3759 40.9154V57.7674ZM88.8425 57.7674H85.2785C83.1079 57.7674 81.4505 57.122 80.3065 55.8314C79.1919 54.5407 78.6345 53.0007 78.6345 51.2114V38.0114H76.2145V33.6554H78.6345V28.7274H84.3545V33.6554H88.4025V38.0114H84.3545V50.8594C84.3545 52.238 85.0145 52.9274 86.3345 52.9274H88.8425V57.7674ZM96.4793 23.0514C97.8579 23.0514 98.7526 23.2714 99.1633 23.7114C99.5739 24.122 99.7793 25.0167 99.7793 26.3954C99.7793 27.7447 99.5593 28.6394 99.1193 29.0794C98.7086 29.49 97.8139 29.6954 96.4353 29.6954C95.0859 29.6954 94.1913 29.4754 93.7513 29.0354C93.3406 28.5954 93.1353 27.7007 93.1353 26.3514C93.1353 25.002 93.3406 24.122 93.7513 23.7114C94.1913 23.2714 95.1006 23.0514 96.4793 23.0514ZM99.2953 57.7674H93.5753V33.5674H99.2953V57.7674ZM111.192 57.7674L105.472 57.8114V24.6794H111.192V57.7674ZM130.273 47.8674H116.721V42.5434H130.273V47.8674Z" fill="#25523F"/>
<path d="M25.432 26.4394L27.3294 27.0718L28.2069 24.4394H25.432V26.4394ZM15.576 56.0074L17.4385 56.7362L17.4572 56.6884L17.4734 56.6398L15.576 56.0074ZM9.856 56.0074L7.9561 56.6322L7.97337 56.6847L7.99352 56.7362L9.856 56.0074ZM0.132 26.4394V24.4394H-2.63112L-1.7679 27.0642L0.132 26.4394ZM6.468 26.4394L8.37929 25.8503L7.94445 24.4394H6.468V26.4394ZM12.76 46.8554L10.8487 47.4444L12.76 53.6461L14.6713 47.4444L12.76 46.8554ZM19.052 26.4394V24.4394H17.5756L17.1407 25.8503L19.052 26.4394ZM23.5346 25.8069L13.6786 55.3749L17.4734 56.6398L27.3294 27.0718L23.5346 25.8069ZM13.7135 55.2786C13.5545 55.6849 13.3941 55.84 13.3087 55.9013C13.2339 55.9551 13.0881 56.0314 12.76 56.0314V60.0314C13.7812 60.0314 14.7795 59.7703 15.6433 59.1494C16.4966 58.5361 17.0695 57.6792 17.4385 56.7362L13.7135 55.2786ZM12.76 56.0314C12.3842 56.0314 12.2094 55.9458 12.1216 55.8846C12.0295 55.8204 11.8715 55.6695 11.7185 55.2786L7.99352 56.7362C8.36855 57.6946 8.95854 58.5557 9.83442 59.1662C10.7146 59.7796 11.7278 60.0314 12.76 60.0314V56.0314ZM11.7559 55.3825L2.0319 25.8145L-1.7679 27.0642L7.9561 56.6322L11.7559 55.3825ZM0.132 28.4394H6.468V24.4394H0.132V28.4394ZM4.55671 27.0284L10.8487 47.4444L14.6713 46.2663L8.37929 25.8503L4.55671 27.0284ZM14.6713 47.4444L20.9633 27.0284L17.1407 25.8503L10.8487 46.2663L14.6713 47.4444ZM19.052 28.4394H25.432V24.4394H19.052V28.4394ZM47.6104 46.5474V48.5474H49.5403L49.6091 46.6187L47.6104 46.5474ZM32.9584 46.5474V44.5474H30.9584V46.5474H32.9584ZM34.0144 51.5634L32.3503 52.6728L32.3608 52.6886L32.3717 52.7042L34.0144 51.5634ZM41.4944 51.8274L43.0816 53.0442L43.0912 53.0317L43.1006 53.0191L41.4944 51.8274ZM42.5064 49.2314V47.2314H40.5064V49.2314H42.5064ZM47.6544 49.2314H49.6544V47.2314H47.6544V49.2314ZM45.1024 56.1394L43.7965 54.6245L43.79 54.6302L43.7835 54.6358L45.1024 56.1394ZM31.9904 57.1514L32.912 55.3764L32.9047 55.3726L31.9904 57.1514ZM29.9664 35.2394L31.4248 36.608L31.43 36.6024L31.4352 36.5968L29.9664 35.2394ZM33.0904 42.6314H31.0904V44.6314H33.0904V42.6314ZM42.5064 42.6314V44.6314H44.5064V42.6314H42.5064ZM41.4064 38.4074L42.9428 37.127L41.4064 38.4074ZM34.4104 38.4514L35.8246 39.8656L34.4104 38.4514ZM47.6104 44.5474H32.9584V48.5474H47.6104V44.5474ZM30.9584 46.5474C30.9584 48.9551 31.3128 51.1166 32.3503 52.6728L35.6785 50.454C35.308 49.8982 34.9584 48.7156 34.9584 46.5474H30.9584ZM32.3717 52.7042C33.6776 54.5847 35.9949 55.1474 38.3704 55.1474V51.1474C36.4046 51.1474 35.8179 50.6541 35.6571 50.4226L32.3717 52.7042ZM38.3704 55.1474C40.2161 55.1474 41.9288 54.5479 43.0816 53.0442L39.9072 50.6105C39.7106 50.8669 39.3408 51.1474 38.3704 51.1474V55.1474ZM43.1006 53.0191C43.9361 51.8929 44.5064 50.6177 44.5064 49.2314H40.5064C40.5064 49.4877 40.402 49.9431 39.8882 50.6357L43.1006 53.0191ZM42.5064 51.2314H47.6544V47.2314H42.5064V51.2314ZM45.6544 49.2314C45.6544 52.0286 44.9028 53.6708 43.7965 54.6245L46.4083 57.6542C48.7046 55.6746 49.6544 52.7114 49.6544 49.2314H45.6544ZM43.7835 54.6358C42.5617 55.7076 40.8428 56.3394 38.4144 56.3394V60.3394C41.5593 60.3394 44.2991 59.5045 46.4213 57.6429L43.7835 54.6358ZM38.4144 56.3394C35.8046 56.3394 34.0308 55.9573 32.912 55.3764L31.0688 58.9264C33.0006 59.9294 35.5095 60.3394 38.4144 60.3394V56.3394ZM32.9047 55.3726C31.9008 54.8566 31.0013 53.8532 30.3373 52.0412C29.6642 50.2043 29.2824 47.6547 29.2824 44.3034H25.2824C25.2824 47.904 25.6853 50.9718 26.5815 53.4175C27.4869 55.8882 28.9414 57.8328 31.0761 58.9301L32.9047 55.3726ZM29.2824 44.3034C29.2824 40.3925 30.1381 37.979 31.4248 36.608L28.508 33.8707C26.216 36.313 25.2824 39.9423 25.2824 44.3034H29.2824ZM31.4352 36.5968C32.7165 35.2105 34.8169 34.3354 38.1504 34.3354V30.3354C34.1506 30.3354 30.795 31.3962 28.4977 33.8819L31.4352 36.5968ZM38.1504 34.3354C40.9674 34.3354 42.7295 35.1079 43.8251 36.3246C44.9566 37.5813 45.6984 39.6642 45.6984 42.9394H49.6984C49.6984 39.1452 48.8489 35.9261 46.7977 33.6481C44.7106 31.3302 41.6987 30.3354 38.1504 30.3354V34.3354ZM45.6984 42.9394C45.6984 43.664 45.6702 44.8365 45.6117 46.476L49.6091 46.6187C49.6679 44.9729 49.6984 43.7401 49.6984 42.9394H45.6984ZM33.0904 44.6314H42.5064V40.6314H33.0904V44.6314ZM44.5064 42.6314C44.5064 40.5233 44.1221 38.5421 42.9428 37.127L39.87 39.6877C40.1574 40.0326 40.5064 40.8674 40.5064 42.6314H44.5064ZM42.9428 37.127C41.7131 35.6513 39.9277 35.0874 38.0184 35.0874V39.0874C39.1598 39.0874 39.633 39.4034 39.87 39.6877L42.9428 37.127ZM38.0184 35.0874C36.0856 35.0874 34.342 35.6914 32.9962 37.0372L35.8246 39.8656C36.2975 39.3927 36.9592 39.0874 38.0184 39.0874V35.0874ZM32.9962 37.0372C31.5827 38.4506 31.0904 40.4708 31.0904 42.6314H35.0904C35.0904 40.9786 35.4781 40.2121 35.8246 39.8656L32.9962 37.0372ZM72.3759 57.7674V59.7674H74.3759V57.7674H72.3759ZM66.6559 57.7674H64.6559V59.7674H66.6559V57.7674ZM65.7759 38.7594L64.438 40.246L65.7759 38.7594ZM63.3119 37.9674V35.9674H62.91L62.5393 36.1226L63.3119 37.9674ZM58.1639 40.1234L57.3913 38.2786L56.1639 38.7927V40.1234H58.1639ZM58.1639 57.7674V59.7674H60.1639V57.7674H58.1639ZM52.4439 57.7674H50.4439V59.7674H52.4439V57.7674ZM52.4439 32.6434V30.6434H50.4439V32.6434H52.4439ZM56.7119 32.6434L58.5417 31.8361L58.0155 30.6434H56.7119V32.6434ZM58.0319 35.6354L56.202 36.4426L57.0237 38.3052L58.8714 37.4506L58.0319 35.6354ZM65.0719 32.3794V30.3794H64.6318L64.2323 30.5641L65.0719 32.3794ZM70.1759 34.5794L68.7475 35.9792L68.7616 35.9937L68.776 36.0078L70.1759 34.5794ZM72.3759 55.7674H66.6559V59.7674H72.3759V55.7674ZM68.6559 57.7674V41.7074H64.6559V57.7674H68.6559ZM68.6559 41.7074C68.6559 40.1327 68.3604 38.3947 67.1138 37.2728L64.438 40.246C64.3877 40.2007 64.4471 40.222 64.5194 40.4644C64.5934 40.7123 64.6559 41.1111 64.6559 41.7074H68.6559ZM67.1138 37.2728C66.0508 36.3161 64.6924 35.9674 63.3119 35.9674V39.9674C64.0434 39.9674 64.3276 40.1467 64.438 40.246L67.1138 37.2728ZM62.5393 36.1226L57.3913 38.2786L58.9365 41.9681L64.0845 39.8121L62.5393 36.1226ZM56.1639 40.1234V57.7674H60.1639V40.1234H56.1639ZM58.1639 55.7674H52.4439V59.7674H58.1639V55.7674ZM54.4439 57.7674V32.6434H50.4439V57.7674H54.4439ZM52.4439 34.6434H56.7119V30.6434H52.4439V34.6434ZM54.882 33.4506L56.202 36.4426L59.8617 34.8281L58.5417 31.8361L54.882 33.4506ZM58.8714 37.4506L65.9114 34.1946L64.2323 30.5641L57.1923 33.8201L58.8714 37.4506ZM65.0719 34.3794C66.4734 34.3794 67.6674 34.8771 68.7475 35.9792L71.6043 33.1795C69.8097 31.3483 67.601 30.3794 65.0719 30.3794V34.3794ZM68.776 36.0078C69.7376 36.9501 70.3759 38.4685 70.3759 40.9154H74.3759C74.3759 37.7889 73.5475 35.0833 71.5757 33.1509L68.776 36.0078ZM70.3759 40.9154V57.7674H74.3759V40.9154H70.3759ZM88.8425 57.7674V59.7674H90.8425V57.7674H88.8425ZM80.3065 55.8314L78.7929 57.1386L78.8013 57.1483L78.8098 57.158L80.3065 55.8314ZM78.6345 38.0114H80.6345V36.0114H78.6345V38.0114ZM76.2145 38.0114H74.2145V40.0114H76.2145V38.0114ZM76.2145 33.6554V31.6554H74.2145V33.6554H76.2145ZM78.6345 33.6554V35.6554H80.6345V33.6554H78.6345ZM78.6345 28.7274V26.7274H76.6345V28.7274H78.6345ZM84.3545 28.7274H86.3545V26.7274H84.3545V28.7274ZM84.3545 33.6554H82.3545V35.6554H84.3545V33.6554ZM88.4025 33.6554H90.4025V31.6554H88.4025V33.6554ZM88.4025 38.0114V40.0114H90.4025V38.0114H88.4025ZM84.3545 38.0114V36.0114H82.3545V38.0114H84.3545ZM88.8425 52.9274H90.8425V50.9274H88.8425V52.9274ZM88.8425 55.7674H85.2785V59.7674H88.8425V55.7674ZM85.2785 55.7674C83.5211 55.7674 82.4736 55.261 81.8032 54.5047L78.8098 57.158C80.4275 58.983 82.6946 59.7674 85.2785 59.7674V55.7674ZM81.8202 54.5241C81.0357 53.6157 80.6345 52.5464 80.6345 51.2114H76.6345C76.6345 53.455 77.3481 55.4657 78.7929 57.1386L81.8202 54.5241ZM80.6345 51.2114V38.0114H76.6345V51.2114H80.6345ZM78.6345 36.0114H76.2145V40.0114H78.6345V36.0114ZM78.2145 38.0114V33.6554H74.2145V38.0114H78.2145ZM76.2145 35.6554H78.6345V31.6554H76.2145V35.6554ZM80.6345 33.6554V28.7274H76.6345V33.6554H80.6345ZM78.6345 30.7274H84.3545V26.7274H78.6345V30.7274ZM82.3545 28.7274V33.6554H86.3545V28.7274H82.3545ZM84.3545 35.6554H88.4025V31.6554H84.3545V35.6554ZM86.4025 33.6554V38.0114H90.4025V33.6554H86.4025ZM88.4025 36.0114H84.3545V40.0114H88.4025V36.0114ZM82.3545 38.0114V50.8594H86.3545V38.0114H82.3545ZM82.3545 50.8594C82.3545 51.8358 82.5869 52.9391 83.4049 53.7935C84.2385 54.6641 85.3436 54.9274 86.3345 54.9274V50.9274C86.2558 50.9274 86.2006 50.9222 86.1656 50.917C86.1308 50.9118 86.1194 50.9071 86.1259 50.9093C86.133 50.9118 86.1567 50.921 86.19 50.9418C86.2239 50.9631 86.2602 50.9917 86.2941 51.0272C86.328 51.0626 86.3518 51.0966 86.3672 51.1233C86.3821 51.1492 86.3857 51.1625 86.3836 51.156C86.3814 51.1491 86.3739 51.1231 86.367 51.073C86.3602 51.0229 86.3545 50.9527 86.3545 50.8594H82.3545ZM86.3345 54.9274H88.8425V50.9274H86.3345V54.9274ZM86.8425 52.9274V57.7674H90.8425V52.9274H86.8425ZM99.1633 23.7114L97.7012 25.076L97.7247 25.1012L97.7491 25.1256L99.1633 23.7114ZM99.1193 29.0794L100.533 30.4936L100.534 30.4936L99.1193 29.0794ZM93.7513 29.0354L92.2892 30.4L92.3127 30.4252L92.3371 30.4496L93.7513 29.0354ZM93.7513 23.7114L92.3371 22.2971V22.2971L93.7513 23.7114ZM99.2953 57.7674V59.7674H101.295V57.7674H99.2953ZM93.5753 57.7674H91.5753V59.7674H93.5753V57.7674ZM93.5753 33.5674V31.5674H91.5753V33.5674H93.5753ZM99.2953 33.5674H101.295V31.5674H99.2953V33.5674ZM96.4793 25.0514C97.0788 25.0514 97.4722 25.1008 97.7067 25.1585C97.9628 25.2215 97.8669 25.2535 97.7012 25.076L100.625 22.3467C100.049 21.7292 99.3005 21.4313 98.6619 21.2742C98.0017 21.1119 97.2584 21.0514 96.4793 21.0514V25.0514ZM97.7491 25.1256C97.5764 24.9529 97.6128 24.8624 97.676 25.1377C97.7327 25.3849 97.7793 25.7895 97.7793 26.3954H101.779C101.779 25.6226 101.723 24.8905 101.575 24.243C101.432 23.6236 101.161 22.8805 100.577 22.2971L97.7491 25.1256ZM97.7793 26.3954C97.7793 26.9762 97.7304 27.3637 97.6721 27.6008C97.6102 27.8528 97.5714 27.7988 97.7051 27.6652L100.534 30.4936C101.107 29.9199 101.398 29.1986 101.556 28.5559C101.718 27.8984 101.779 27.1639 101.779 26.3954H97.7793ZM97.7051 27.6651C97.8777 27.4925 97.9682 27.5289 97.6929 27.592C97.4458 27.6488 97.0411 27.6954 96.4353 27.6954V31.6954C97.2081 31.6954 97.9401 31.6393 98.5877 31.4907C99.207 31.3485 99.9502 31.0769 100.533 30.4936L97.7051 27.6651ZM96.4353 27.6954C95.8545 27.6954 95.467 27.6465 95.2299 27.5882C94.9779 27.5263 95.0319 27.4875 95.1655 27.6212L92.3371 30.4496C92.9107 31.0232 93.632 31.3145 94.2747 31.4725C94.9323 31.6342 95.6668 31.6954 96.4353 31.6954V27.6954ZM95.2134 27.6707C95.3427 27.8092 95.3005 27.8569 95.2386 27.587C95.1813 27.3374 95.1353 26.9388 95.1353 26.3514H91.1353C91.1353 27.1133 91.1919 27.8367 91.34 28.4817C91.4834 29.1065 91.7492 29.8215 92.2892 30.4L95.2134 27.6707ZM95.1353 26.3514C95.1353 25.7625 95.1816 25.3712 95.237 25.1338C95.2981 24.8717 95.3324 24.9587 95.1655 25.1256L92.3371 22.2971C91.7595 22.8747 91.4858 23.607 91.3416 24.2249C91.1917 24.8675 91.1353 25.5909 91.1353 26.3514H95.1353ZM95.1655 25.1256C95.0261 25.265 94.969 25.2243 95.2336 25.1603C95.4804 25.1006 95.8812 25.0514 96.4793 25.0514V21.0514C95.6987 21.0514 94.9555 21.1122 94.293 21.2724C93.6482 21.4284 92.9165 21.7177 92.3371 22.2971L95.1655 25.1256ZM99.2953 55.7674H93.5753V59.7674H99.2953V55.7674ZM95.5753 57.7674V33.5674H91.5753V57.7674H95.5753ZM93.5753 35.5674H99.2953V31.5674H93.5753V35.5674ZM97.2953 33.5674V57.7674H101.295V33.5674H97.2953ZM111.192 57.7674L111.208 59.7673L113.192 59.752V57.7674H111.192ZM105.472 57.8114H103.472V59.8268L105.488 59.8113L105.472 57.8114ZM105.472 24.6794V22.6794H103.472V24.6794H105.472ZM111.192 24.6794H113.192V22.6794H111.192V24.6794ZM111.177 55.7674L105.457 55.8114L105.488 59.8113L111.208 59.7673L111.177 55.7674ZM107.472 57.8114V24.6794H103.472V57.8114H107.472ZM105.472 26.6794H111.192V22.6794H105.472V26.6794ZM109.192 24.6794V57.7674H113.192V24.6794H109.192ZM130.273 47.8674V49.8674H132.273V47.8674H130.273ZM116.721 47.8674H114.721V49.8674H116.721V47.8674ZM116.721 42.5434V40.5434H114.721V42.5434H116.721ZM130.273 42.5434H132.273V40.5434H130.273V42.5434ZM130.273 45.8674H116.721V49.8674H130.273V45.8674ZM118.721 47.8674V42.5434H114.721V47.8674H118.721ZM116.721 44.5434H130.273V40.5434H116.721V44.5434ZM128.273 42.5434V47.8674H132.273V42.5434H128.273Z" fill="white"/>
</g>
<g filter="url(#filter1_d_8_140)">
<path d="M50.276 79.5234C50.276 86.0647 48.5893 90.2447 45.216 92.0634C43.8373 92.7967 42.1507 93.1634 40.156 93.1634L35.932 90.4354V100.247H30.212V67.8194H41.476C44.8787 67.8194 47.196 68.7874 48.428 70.7234C49.66 72.63 50.276 75.5634 50.276 79.5234ZM44.556 80.4034C44.556 75.446 42.972 72.9674 39.804 72.9674H35.932V84.6274L39.804 87.1354C41.5053 87.1354 42.7227 86.6074 43.456 85.5514C44.1893 84.466 44.556 82.75 44.556 80.4034ZM72.1251 92.7674H68.2971L66.5371 89.7314L60.4211 93.0314C57.0184 93.0314 54.7304 91.7994 53.5571 89.3354C52.9704 88.1327 52.5598 86.842 52.3251 85.4634C52.1198 84.0554 52.0171 82.6034 52.0171 81.1074C52.0171 79.582 52.0318 78.4674 52.0611 77.7634C52.0904 77.03 52.1638 76.194 52.2811 75.2554C52.3984 74.2874 52.5598 73.4807 52.7651 72.8354C52.9998 72.19 53.3224 71.53 53.7331 70.8554C54.1438 70.1514 54.6424 69.594 55.2291 69.1834C56.5491 68.274 58.2651 67.8194 60.3771 67.8194H66.4051L72.1251 67.4674V92.7674ZM66.4051 84.7594V72.9674H62.0491C60.4358 72.9674 59.3064 73.5834 58.6611 74.8154C58.0451 76.0474 57.7371 77.8954 57.7371 80.3594C57.7371 82.794 58.0304 84.51 58.6171 85.5074C59.2331 86.5047 60.3771 87.0034 62.0491 87.0034L66.4051 84.7594ZM91.669 67.7314L90.085 73.3634C89.645 73.1874 89.1463 73.0994 88.589 73.0994C87.1223 73.0994 85.3183 73.73 83.177 74.9914V92.7674H77.457V67.6434H81.725L83.045 69.8434L89.117 67.3354C89.4103 67.306 89.8063 67.2914 90.305 67.2914C90.8037 67.2914 91.2583 67.438 91.669 67.7314ZM106.218 92.7674H102.654C100.483 92.7674 98.8255 92.122 97.6815 90.8314C96.5669 89.5407 96.0095 88.0007 96.0095 86.2114V73.0114H93.5895V68.6554H96.0095V63.7274H101.73V68.6554H105.778V73.0114H101.73V85.8594C101.73 87.238 102.39 87.9274 103.71 87.9274H106.218V92.7674ZM130.442 92.7674H124.722V76.7074C124.722 75.27 124.429 74.2874 123.842 73.7594C123.256 73.2314 122.434 72.9674 121.378 72.9674L116.23 75.1234V92.7674H110.51V67.6434H114.778L116.098 70.6354L123.138 67.3794C125.104 67.3794 126.805 68.1127 128.242 69.5794C129.709 71.0167 130.442 73.1287 130.442 75.9154V92.7674ZM155.005 81.5474H140.353C140.353 83.8354 140.705 85.5074 141.409 86.5634C142.142 87.6194 143.594 88.1474 145.765 88.1474C147.173 88.1474 148.214 87.7074 148.889 86.8274C149.564 85.918 149.901 85.0527 149.901 84.2314H155.049C155.049 87.37 154.198 89.6727 152.497 91.1394C150.825 92.606 148.596 93.3394 145.809 93.3394C143.052 93.3394 140.91 92.9434 139.385 92.1514C136.246 90.538 134.677 86.2554 134.677 79.3034C134.677 75.1674 135.572 72.146 137.361 70.2394C139.15 68.3034 141.878 67.3354 145.545 67.3354C151.91 67.3354 155.093 70.87 155.093 77.9394C155.093 78.702 155.064 79.9047 155.005 81.5474ZM140.485 77.6314H149.901C149.901 75.6954 149.534 74.2874 148.801 73.4074C148.068 72.5274 146.938 72.0874 145.413 72.0874C143.917 72.0874 142.714 72.542 141.805 73.4514C140.925 74.3314 140.485 75.7247 140.485 77.6314ZM173.61 67.7314L172.026 73.3634C171.586 73.1874 171.088 73.0994 170.53 73.0994C169.064 73.0994 167.26 73.73 165.118 74.9914V92.7674H159.398V67.6434H163.666L164.986 69.8434L171.058 67.3354C171.352 67.306 171.748 67.2914 172.246 67.2914C172.745 67.2914 173.2 67.438 173.61 67.7314Z" fill="#101210"/>
<path d="M45.216 92.0634L46.1552 93.8291L46.1651 93.8238L45.216 92.0634ZM40.156 93.1634L39.071 94.8434L39.5663 95.1634H40.156V93.1634ZM35.932 90.4354L37.0171 88.7553L33.932 86.7629V90.4354H35.932ZM35.932 100.247V102.247H37.932V100.247H35.932ZM30.212 100.247H28.212V102.247H30.212V100.247ZM30.212 67.8194V65.8194H28.212V67.8194H30.212ZM48.428 70.7234L46.7406 71.7971L46.7482 71.8088L48.428 70.7234ZM35.932 72.9674V70.9674H33.932V72.9674H35.932ZM35.932 84.6274H33.932V85.7148L34.8447 86.306L35.932 84.6274ZM39.804 87.1354L38.7167 88.814L39.2129 89.1354H39.804V87.1354ZM43.456 85.5514L45.0987 86.6922L45.106 86.6817L45.1132 86.6711L43.456 85.5514ZM48.276 79.5234C48.276 85.8697 46.6265 89.0308 44.2669 90.3029L46.1651 93.8238C50.5522 91.4586 52.276 86.2597 52.276 79.5234H48.276ZM44.2768 90.2976C43.2565 90.8403 41.9117 91.1634 40.156 91.1634V95.1634C42.3897 95.1634 44.4182 94.7531 46.1552 93.8291L44.2768 90.2976ZM41.2411 91.4833L37.0171 88.7553L34.8469 92.1154L39.071 94.8434L41.2411 91.4833ZM33.932 90.4354V100.247H37.932V90.4354H33.932ZM35.932 98.2474H30.212V102.247H35.932V98.2474ZM32.212 100.247V67.8194H28.212V100.247H32.212ZM30.212 69.8194H41.476V65.8194H30.212V69.8194ZM41.476 69.8194C44.5491 69.8194 46.0323 70.684 46.7407 71.7971L50.1153 69.6496C48.3597 66.8907 45.2083 65.8194 41.476 65.8194V69.8194ZM46.7482 71.8088C47.6671 73.231 48.276 75.6967 48.276 79.5234H52.276C52.276 75.43 51.6529 72.0291 50.1078 69.6379L46.7482 71.8088ZM46.556 80.4034C46.556 77.776 46.1479 75.4622 45.0533 73.7494C43.8612 71.884 42.0076 70.9674 39.804 70.9674V74.9674C40.7684 74.9674 41.2908 75.2901 41.6827 75.9033C42.1721 76.6691 42.556 78.0734 42.556 80.4034H46.556ZM39.804 70.9674H35.932V74.9674H39.804V70.9674ZM33.932 72.9674V84.6274H37.932V72.9674H33.932ZM34.8447 86.306L38.7167 88.814L40.8913 85.4567L37.0193 82.9487L34.8447 86.306ZM39.804 89.1354C41.927 89.1354 43.8757 88.4533 45.0987 86.6922L41.8133 84.4106C41.5696 84.7614 41.0837 85.1354 39.804 85.1354V89.1354ZM45.1132 86.6711C46.1859 85.0835 46.556 82.8738 46.556 80.4034H42.556C42.556 82.6263 42.1928 83.8486 41.7988 84.4316L45.1132 86.6711ZM72.1251 92.7674V94.7674H74.1251V92.7674H72.1251ZM68.2971 92.7674L66.5668 93.7704L67.1447 94.7674H68.2971V92.7674ZM66.5371 89.7314L68.2674 88.7283L67.2945 87.0501L65.5874 87.9712L66.5371 89.7314ZM60.4211 93.0314V95.0314H60.9262L61.3708 94.7915L60.4211 93.0314ZM53.5571 89.3354L55.3628 88.4755L55.3588 88.467L55.3546 88.4585L53.5571 89.3354ZM52.3251 85.4634L50.346 85.752L50.3495 85.7755L50.3535 85.799L52.3251 85.4634ZM52.0611 77.7634L54.0594 77.8466L54.0595 77.8433L52.0611 77.7634ZM52.2811 75.2554L54.2657 75.5034L54.2666 75.496L52.2811 75.2554ZM52.7651 72.8354L50.8855 72.1519L50.8716 72.1901L50.8592 72.229L52.7651 72.8354ZM53.7331 70.8554L55.4415 71.8953L55.4512 71.8793L55.4607 71.8631L53.7331 70.8554ZM55.2291 69.1834L54.0945 67.5363L54.0883 67.5406L54.0822 67.5449L55.2291 69.1834ZM66.4051 67.8194V69.8194H66.4666L66.5279 69.8156L66.4051 67.8194ZM72.1251 67.4674H74.1251V65.3405L72.0023 65.4711L72.1251 67.4674ZM66.4051 84.7594L67.321 86.5373L68.4051 85.9788V84.7594H66.4051ZM66.4051 72.9674H68.4051V70.9674H66.4051V72.9674ZM58.6611 74.8154L56.8894 73.8874L56.8807 73.9041L56.8722 73.9209L58.6611 74.8154ZM58.6171 85.5074L56.8932 86.5214L56.9042 86.54L56.9155 86.5583L58.6171 85.5074ZM62.0491 87.0034V89.0034H62.534L62.965 88.7813L62.0491 87.0034ZM72.1251 90.7674H68.2971V94.7674H72.1251V90.7674ZM70.0274 91.7643L68.2674 88.7283L64.8068 90.7344L66.5668 93.7704L70.0274 91.7643ZM65.5874 87.9712L59.4714 91.2712L61.3708 94.7915L67.4868 91.4915L65.5874 87.9712ZM60.4211 91.0314C58.9517 91.0314 57.8776 90.7644 57.1013 90.3464C56.3512 89.9425 55.7765 89.3442 55.3628 88.4755L51.7514 90.1952C52.511 91.7906 53.667 93.0402 55.2049 93.8683C56.7166 94.6823 58.4878 95.0314 60.4211 95.0314V91.0314ZM55.3546 88.4585C54.8552 87.4346 54.5009 86.3272 54.2967 85.1278L50.3535 85.799C50.6186 87.3569 51.0857 88.8308 51.7596 90.2122L55.3546 88.4585ZM54.3042 85.1748C54.1135 83.8671 54.0171 82.5117 54.0171 81.1074H50.0171C50.0171 82.695 50.1261 84.2437 50.346 85.752L54.3042 85.1748ZM54.0171 81.1074C54.0171 79.5856 54.0319 78.5062 54.0594 77.8466L50.0628 77.6801C50.0316 78.4285 50.0171 79.5785 50.0171 81.1074H54.0171ZM54.0595 77.8433C54.086 77.1795 54.1534 76.4013 54.2656 75.5034L50.2965 75.0073C50.1741 75.9868 50.0948 76.8806 50.0627 77.6834L54.0595 77.8433ZM54.2666 75.496C54.3748 74.6031 54.516 73.9286 54.6709 73.4418L50.8592 72.229C50.6035 73.0328 50.4221 73.9717 50.2956 75.0147L54.2666 75.496ZM54.6447 73.5189C54.8281 73.0145 55.0895 72.4735 55.4415 71.8953L52.0247 69.8155C51.5553 70.5866 51.1715 71.3655 50.8855 72.1519L54.6447 73.5189ZM55.4607 71.8631C55.7458 71.3743 56.0569 71.0452 56.376 70.8218L54.0822 67.5449C53.228 68.1428 52.5418 68.9284 52.0055 69.8476L55.4607 71.8631ZM56.3637 70.8304C57.2587 70.2138 58.5432 69.8194 60.3771 69.8194V65.8194C57.987 65.8194 55.8394 66.3343 54.0945 67.5363L56.3637 70.8304ZM60.3771 69.8194H66.4051V65.8194H60.3771V69.8194ZM66.5279 69.8156L72.2479 69.4636L72.0023 65.4711L66.2822 65.8231L66.5279 69.8156ZM70.1251 67.4674V92.7674H74.1251V67.4674H70.1251ZM68.4051 84.7594V72.9674H64.4051V84.7594H68.4051ZM66.4051 70.9674H62.0491V74.9674H66.4051V70.9674ZM62.0491 70.9674C60.9913 70.9674 59.9583 71.1696 59.0344 71.6736C58.0942 72.1864 57.38 72.9508 56.8894 73.8874L60.4328 75.7434C60.5875 75.448 60.7607 75.2883 60.9498 75.1852C61.1552 75.0731 61.4935 74.9674 62.0491 74.9674V70.9674ZM56.8722 73.9209C56.0473 75.5709 55.7371 77.7932 55.7371 80.3594H59.7371C59.7371 77.9975 60.0429 76.5239 60.4499 75.7098L56.8722 73.9209ZM55.7371 80.3594C55.7371 82.8369 56.0146 85.0278 56.8932 86.5214L60.341 84.4933C60.0462 83.9923 59.7371 82.7512 59.7371 80.3594H55.7371ZM56.9155 86.5583C58.0386 88.3767 60.0076 89.0034 62.0491 89.0034V85.0034C60.7465 85.0034 60.4276 84.6326 60.3187 84.4564L56.9155 86.5583ZM62.965 88.7813L67.321 86.5373L65.4892 82.9814L61.1332 85.2254L62.965 88.7813ZM91.669 67.7314L93.5943 68.2729L93.9747 66.9205L92.8315 66.1039L91.669 67.7314ZM90.085 73.3634L89.3422 75.2203L91.4079 76.0466L92.0103 73.9049L90.085 73.3634ZM83.177 74.9914L82.1619 73.2681L81.177 73.8483V74.9914H83.177ZM83.177 92.7674V94.7674H85.177V92.7674H83.177ZM77.457 92.7674H75.457V94.7674H77.457V92.7674ZM77.457 67.6434V65.6434H75.457V67.6434H77.457ZM81.725 67.6434L83.44 66.6144L82.8574 65.6434H81.725V67.6434ZM83.045 69.8434L81.33 70.8724L82.2163 72.3495L83.8085 71.6919L83.045 69.8434ZM89.117 67.3354L88.918 65.3453L88.6253 65.3746L88.3535 65.4868L89.117 67.3354ZM89.7437 67.1899L88.1597 72.8219L92.0103 73.9049L93.5943 68.2729L89.7437 67.1899ZM90.8278 71.5064C90.1138 71.2208 89.3568 71.0994 88.589 71.0994V75.0994C88.9359 75.0994 89.1762 75.1539 89.3422 75.2203L90.8278 71.5064ZM88.589 71.0994C86.5965 71.0994 84.4224 71.9366 82.1619 73.2681L84.1921 76.7146C86.2142 75.5235 87.6481 75.0994 88.589 75.0994V71.0994ZM81.177 74.9914V92.7674H85.177V74.9914H81.177ZM83.177 90.7674H77.457V94.7674H83.177V90.7674ZM79.457 92.7674V67.6434H75.457V92.7674H79.457ZM77.457 69.6434H81.725V65.6434H77.457V69.6434ZM80.01 68.6724L81.33 70.8724L84.76 68.8144L83.44 66.6144L80.01 68.6724ZM83.8085 71.6919L89.8805 69.1839L88.3535 65.4868L82.2815 67.9948L83.8085 71.6919ZM89.316 69.3254C89.5135 69.3057 89.8342 69.2914 90.305 69.2914V65.2914C89.7785 65.2914 89.3071 65.3064 88.918 65.3453L89.316 69.3254ZM90.305 69.2914C90.3815 69.2914 90.4307 69.3047 90.5065 69.3588L92.8315 66.1039C92.086 65.5714 91.2259 65.2914 90.305 65.2914V69.2914ZM106.218 92.7674V94.7674H108.218V92.7674H106.218ZM97.6815 90.8314L96.1679 92.1386L96.1763 92.1483L96.1848 92.158L97.6815 90.8314ZM96.0095 73.0114H98.0095V71.0114H96.0095V73.0114ZM93.5895 73.0114H91.5895V75.0114H93.5895V73.0114ZM93.5895 68.6554V66.6554H91.5895V68.6554H93.5895ZM96.0095 68.6554V70.6554H98.0095V68.6554H96.0095ZM96.0095 63.7274V61.7274H94.0095V63.7274H96.0095ZM101.73 63.7274H103.73V61.7274H101.73V63.7274ZM101.73 68.6554H99.7295V70.6554H101.73V68.6554ZM105.778 68.6554H107.778V66.6554H105.778V68.6554ZM105.778 73.0114V75.0114H107.778V73.0114H105.778ZM101.73 73.0114V71.0114H99.7295V73.0114H101.73ZM106.218 87.9274H108.218V85.9274H106.218V87.9274ZM106.218 90.7674H102.654V94.7674H106.218V90.7674ZM102.654 90.7674C100.896 90.7674 99.8486 90.261 99.1782 89.5047L96.1848 92.158C97.8025 93.983 100.07 94.7674 102.654 94.7674V90.7674ZM99.1952 89.5241C98.4107 88.6157 98.0095 87.5464 98.0095 86.2114H94.0095C94.0095 88.455 94.7231 90.4657 96.1679 92.1386L99.1952 89.5241ZM98.0095 86.2114V73.0114H94.0095V86.2114H98.0095ZM96.0095 71.0114H93.5895V75.0114H96.0095V71.0114ZM95.5895 73.0114V68.6554H91.5895V73.0114H95.5895ZM93.5895 70.6554H96.0095V66.6554H93.5895V70.6554ZM98.0095 68.6554V63.7274H94.0095V68.6554H98.0095ZM96.0095 65.7274H101.73V61.7274H96.0095V65.7274ZM99.7295 63.7274V68.6554H103.73V63.7274H99.7295ZM101.73 70.6554H105.778V66.6554H101.73V70.6554ZM103.778 68.6554V73.0114H107.778V68.6554H103.778ZM105.778 71.0114H101.73V75.0114H105.778V71.0114ZM99.7295 73.0114V85.8594H103.73V73.0114H99.7295ZM99.7295 85.8594C99.7295 86.8358 99.9619 87.9391 100.78 88.7935C101.613 89.6641 102.719 89.9274 103.71 89.9274V85.9274C103.631 85.9274 103.576 85.9222 103.541 85.917C103.506 85.9118 103.494 85.9071 103.501 85.9093C103.508 85.9118 103.532 85.921 103.565 85.9418C103.599 85.9631 103.635 85.9917 103.669 86.0272C103.703 86.0626 103.727 86.0966 103.742 86.1233C103.757 86.1492 103.761 86.1625 103.759 86.156C103.756 86.1491 103.749 86.1231 103.742 86.073C103.735 86.0229 103.73 85.9527 103.73 85.8594H99.7295ZM103.71 89.9274H106.218V85.9274H103.71V89.9274ZM104.218 87.9274V92.7674H108.218V87.9274H104.218ZM130.442 92.7674V94.7674H132.442V92.7674H130.442ZM124.722 92.7674H122.722V94.7674H124.722V92.7674ZM123.842 73.7594L122.504 75.246L123.842 73.7594ZM121.378 72.9674V70.9674H120.976L120.606 71.1226L121.378 72.9674ZM116.23 75.1234L115.458 73.2786L114.23 73.7927V75.1234H116.23ZM116.23 92.7674V94.7674H118.23V92.7674H116.23ZM110.51 92.7674H108.51V94.7674H110.51V92.7674ZM110.51 67.6434V65.6434H108.51V67.6434H110.51ZM114.778 67.6434L116.608 66.8361L116.082 65.6434H114.778V67.6434ZM116.098 70.6354L114.268 71.4426L115.09 73.3052L116.938 72.4506L116.098 70.6354ZM123.138 67.3794V65.3794H122.698L122.299 65.5641L123.138 67.3794ZM128.242 69.5794L126.814 70.9792L126.828 70.9937L126.842 71.0078L128.242 69.5794ZM130.442 90.7674H124.722V94.7674H130.442V90.7674ZM126.722 92.7674V76.7074H122.722V92.7674H126.722ZM126.722 76.7074C126.722 75.1327 126.427 73.3947 125.18 72.2728L122.504 75.246C122.454 75.2007 122.513 75.222 122.586 75.4644C122.66 75.7123 122.722 76.1111 122.722 76.7074H126.722ZM125.18 72.2728C124.117 71.3161 122.759 70.9674 121.378 70.9674V74.9674C122.11 74.9674 122.394 75.1467 122.504 75.246L125.18 72.2728ZM120.606 71.1226L115.458 73.2786L117.003 76.9681L122.151 74.8121L120.606 71.1226ZM114.23 75.1234V92.7674H118.23V75.1234H114.23ZM116.23 90.7674H110.51V94.7674H116.23V90.7674ZM112.51 92.7674V67.6434H108.51V92.7674H112.51ZM110.51 69.6434H114.778V65.6434H110.51V69.6434ZM112.948 68.4506L114.268 71.4426L117.928 69.8281L116.608 66.8361L112.948 68.4506ZM116.938 72.4506L123.978 69.1946L122.299 65.5641L115.259 68.8201L116.938 72.4506ZM123.138 69.3794C124.54 69.3794 125.734 69.8771 126.814 70.9792L129.671 68.1795C127.876 66.3483 125.667 65.3794 123.138 65.3794V69.3794ZM126.842 71.0078C127.804 71.9501 128.442 73.4685 128.442 75.9154H132.442C132.442 72.7889 131.614 70.0833 129.642 68.1509L126.842 71.0078ZM128.442 75.9154V92.7674H132.442V75.9154H128.442ZM155.005 81.5474V83.5474H156.935L157.004 81.6187L155.005 81.5474ZM140.353 81.5474V79.5474H138.353V81.5474H140.353ZM141.409 86.5634L139.745 87.6728L139.755 87.6886L139.766 87.7042L141.409 86.5634ZM148.889 86.8274L150.476 88.0442L150.486 88.0317L150.495 88.0191L148.889 86.8274ZM149.901 84.2314V82.2314H147.901V84.2314H149.901ZM155.049 84.2314H157.049V82.2314H155.049V84.2314ZM152.497 91.1394L151.191 89.6245L151.185 89.6302L151.178 89.6358L152.497 91.1394ZM139.385 92.1514L140.307 90.3764L140.299 90.3726L139.385 92.1514ZM137.361 70.2394L138.819 71.608L138.825 71.6024L138.83 71.5968L137.361 70.2394ZM140.485 77.6314H138.485V79.6314H140.485V77.6314ZM149.901 77.6314V79.6314H151.901V77.6314H149.901ZM148.801 73.4074L150.337 72.127L148.801 73.4074ZM141.805 73.4514L143.219 74.8656L141.805 73.4514ZM155.005 79.5474H140.353V83.5474H155.005V79.5474ZM138.353 81.5474C138.353 83.9551 138.707 86.1166 139.745 87.6728L143.073 85.454C142.703 84.8982 142.353 83.7156 142.353 81.5474H138.353ZM139.766 87.7042C141.072 89.5847 143.389 90.1474 145.765 90.1474V86.1474C143.799 86.1474 143.212 85.6541 143.052 85.4226L139.766 87.7042ZM145.765 90.1474C147.611 90.1474 149.323 89.5479 150.476 88.0442L147.302 85.6105C147.105 85.8669 146.735 86.1474 145.765 86.1474V90.1474ZM150.495 88.0191C151.331 86.8929 151.901 85.6177 151.901 84.2314H147.901C147.901 84.4877 147.797 84.9431 147.283 85.6357L150.495 88.0191ZM149.901 86.2314H155.049V82.2314H149.901V86.2314ZM153.049 84.2314C153.049 87.0286 152.297 88.6708 151.191 89.6245L153.803 92.6542C156.099 90.6746 157.049 87.7114 157.049 84.2314H153.049ZM151.178 89.6358C149.956 90.7076 148.237 91.3394 145.809 91.3394V95.3394C148.954 95.3394 151.694 94.5045 153.816 92.6429L151.178 89.6358ZM145.809 91.3394C143.199 91.3394 141.425 90.9573 140.307 90.3764L138.463 93.9264C140.395 94.9294 142.904 95.3394 145.809 95.3394V91.3394ZM140.299 90.3726C139.295 89.8566 138.396 88.8532 137.732 87.0412C137.059 85.2043 136.677 82.6547 136.677 79.3034H132.677C132.677 82.904 133.08 85.9718 133.976 88.4175C134.881 90.8882 136.336 92.8328 138.471 93.9301L140.299 90.3726ZM136.677 79.3034C136.677 75.3925 137.533 72.979 138.819 71.608L135.903 68.8707C133.611 71.313 132.677 74.9423 132.677 79.3034H136.677ZM138.83 71.5968C140.111 70.2105 142.211 69.3354 145.545 69.3354V65.3354C141.545 65.3354 138.19 66.3962 135.892 68.8819L138.83 71.5968ZM145.545 69.3354C148.362 69.3354 150.124 70.1079 151.22 71.3246C152.351 72.5813 153.093 74.6642 153.093 77.9394H157.093C157.093 74.1452 156.243 70.9261 154.192 68.6481C152.105 66.3302 149.093 65.3354 145.545 65.3354V69.3354ZM153.093 77.9394C153.093 78.664 153.065 79.8365 153.006 81.476L157.004 81.6187C157.062 79.9729 157.093 78.7401 157.093 77.9394H153.093ZM140.485 79.6314H149.901V75.6314H140.485V79.6314ZM151.901 77.6314C151.901 75.5233 151.517 73.5421 150.337 72.127L147.264 74.6877C147.552 75.0326 147.901 75.8674 147.901 77.6314H151.901ZM150.337 72.127C149.108 70.6513 147.322 70.0874 145.413 70.0874V74.0874C146.554 74.0874 147.028 74.4034 147.264 74.6877L150.337 72.127ZM145.413 70.0874C143.48 70.0874 141.737 70.6914 140.391 72.0372L143.219 74.8656C143.692 74.3927 144.354 74.0874 145.413 74.0874V70.0874ZM140.391 72.0372C138.977 73.4506 138.485 75.4708 138.485 77.6314H142.485C142.485 75.9786 142.873 75.2121 143.219 74.8656L140.391 72.0372ZM173.61 67.7314L175.536 68.2729L175.916 66.9205L174.773 66.1039L173.61 67.7314ZM172.026 73.3634L171.284 75.2203L173.349 76.0466L173.952 73.9049L172.026 73.3634ZM165.118 74.9914L164.103 73.2681L163.118 73.8483V74.9914H165.118ZM165.118 92.7674V94.7674H167.118V92.7674H165.118ZM159.398 92.7674H157.398V94.7674H159.398V92.7674ZM159.398 67.6434V65.6434H157.398V67.6434H159.398ZM163.666 67.6434L165.381 66.6144L164.799 65.6434H163.666V67.6434ZM164.986 69.8434L163.271 70.8724L164.158 72.3495L165.75 71.6919L164.986 69.8434ZM171.058 67.3354L170.859 65.3453L170.567 65.3746L170.295 65.4868L171.058 67.3354ZM171.685 67.1899L170.101 72.8219L173.952 73.9049L175.536 68.2729L171.685 67.1899ZM172.769 71.5064C172.055 71.2208 171.298 71.0994 170.53 71.0994V75.0994C170.877 75.0994 171.118 75.1539 171.284 75.2203L172.769 71.5064ZM170.53 71.0994C168.538 71.0994 166.364 71.9366 164.103 73.2681L166.133 76.7146C168.156 75.5235 169.59 75.0994 170.53 75.0994V71.0994ZM163.118 74.9914V92.7674H167.118V74.9914H163.118ZM165.118 90.7674H159.398V94.7674H165.118V90.7674ZM161.398 92.7674V67.6434H157.398V92.7674H161.398ZM159.398 69.6434H163.666V65.6434H159.398V69.6434ZM161.951 68.6724L163.271 70.8724L166.701 68.8144L165.381 66.6144L161.951 68.6724ZM165.75 71.6919L171.822 69.1839L170.295 65.4868L164.223 67.9948L165.75 71.6919ZM171.257 69.3254C171.455 69.3057 171.776 69.2914 172.246 69.2914V65.2914C171.72 65.2914 171.249 65.3064 170.859 65.3453L171.257 69.3254ZM172.246 69.2914C172.323 69.2914 172.372 69.3047 172.448 69.3588L174.773 66.1039C174.027 65.5714 173.167 65.2914 172.246 65.2914V69.2914Z" fill="white"/>
</g>
<defs>
<filter id="filter0_d_8_140" x="0.131989" y="23.0514" width="132.141" height="39.288" filterUnits="userSpaceOnUse" color-interpolation-filters="sRGB">
<feFlood flood-opacity="0" result="BackgroundImageFix"/>
<feColorMatrix in="SourceAlpha" type="matrix" values="0 0 0 0 0 0 0 0 0 0 0 0 0 0 0 0 0 0 127 0" result="hardAlpha"/>
<feOffset dx="2" dy="4"/>
<feComposite in2="hardAlpha" operator="out"/>
<feColorMatrix type="matrix" values="0 0 0 0 0.713726 0 0 0 0 0.803922 0 0 0 0 0.788235 0 0 0 1 0"/>
<feBlend mode="normal" in2="BackgroundImageFix" result="effect1_dropShadow_8_140"/>
<feBlend mode="normal" in="SourceGraphic" in2="effect1_dropShadow_8_140" result="shape"/>
</filter>
<filter id="filter1_d_8_140" x="30.212" y="63.7274" width="145.398" height="40.52" filterUnits="userSpaceOnUse" color-interpolation-filters="sRGB">
<feFlood flood-opacity="0" result="BackgroundImageFix"/>
<feColorMatrix in="SourceAlpha" type="matrix" values="0 0 0 0 0 0 0 0 0 0 0 0 0 0 0 0 0 0 127 0" result="hardAlpha"/>
<feOffset dx="2" dy="4"/>
<feComposite in2="hardAlpha" operator="out"/>
<feColorMatrix type="matrix" values="0 0 0 0 0.713726 0 0 0 0 0.803922 0 0 0 0 0.788235 0 0 0 1 0"/>
<feBlend mode="normal" in2="BackgroundImageFix" result="effect1_dropShadow_8_140"/>
<feBlend mode="normal" in="SourceGraphic" in2="effect1_dropShadow_8_140" result="shape"/>
</filter>
</defs>
</svg>
